<?xml version="1.0" encoding="UTF-8" standalone="no"?>
<svg width="115px" height="108px" viewBox="0 0 115 108" version="1.1" xmlns="http://www.w3.org/2000/svg" xmlns:xlink="http://www.w3.org/1999/xlink" xmlns:sketch="http://www.bohemiancoding.com/sketch/ns">
    <!-- Generator: Sketch 3.3.3 (12081) - http://www.bohemiancoding.com/sketch -->
    <title>logo</title>
    <desc>Created with Sketch.</desc>
    <defs>
        <filter x="-50%" y="-50%" width="200%" height="200%" filterUnits="objectBoundingBox" id="filter-1">
            <feOffset dx="2" dy="2" in="SourceAlpha" result="shadowOffsetOuter1"></feOffset>
            <feGaussianBlur stdDeviation="6" in="shadowOffsetOuter1" result="shadowBlurOuter1"></feGaussianBlur>
            <feColorMatrix values="0 0 0 0 0   0 0 0 0 0   0 0 0 0 0  0 0 0 0.35 0" in="shadowBlurOuter1" type="matrix" result="shadowMatrixOuter1"></feColorMatrix>
            <feMerge>
                <feMergeNode in="shadowMatrixOuter1"></feMergeNode>
                <feMergeNode in="SourceGraphic"></feMergeNode>
            </feMerge>
        </filter>
    </defs>
    <g id="Page-1" stroke="none" stroke-width="1" fill="none" fill-rule="evenodd" sketch:type="MSPage">
        <g id="iPhone-5/5S/5C" sketch:type="MSArtboardGroup" transform="translate(-108.000000, -14.000000)">
            <g id="logo" sketch:type="MSLayerGroup" transform="translate(118.000000, 18.000000)">
                <rect id="Rectangle-1" fill="#8BA124" filter="url(#filter-1)" sketch:type="MSShapeGroup" x="0" y="6" width="84" height="84" rx="12"></rect>
                <g id="Tablet-+-Rectangle-3-+-" transform="translate(17.000000, 21.000000)" sketch:type="MSShapeGroup">
                    <g id="Tablet" transform="translate(23.478261, 27.500000) rotate(-90.000000) translate(-23.478261, -27.500000) translate(-3.521739, 4.672932)" fill="#FFFFFF">
                        <path d="M5.77033493,25.2577277 C4.45155502,25.2577277 3.35885167,24.1563348 3.35885167,22.8270677 C3.35885167,21.4978005 4.45155502,20.3964077 5.77033493,20.3964077 C7.08911483,20.3964077 8.18181818,21.4978005 8.18181818,22.8270677 C8.18181818,24.1563348 7.08911483,25.2577277 5.77033493,25.2577277 L5.77033493,25.2577277 Z M11.7990431,39.8416876 C11.1584928,39.8416876 10.5933014,39.2720016 10.5933014,38.6263576 L10.5933014,7.02777778 C10.5933014,6.38213372 11.1584928,5.81244779 11.7990431,5.81244779 L47.9712919,5.81244779 C48.6118421,5.81244779 49.1770335,6.38213372 49.1770335,7.02777778 L49.1770335,38.6263576 C49.1770335,39.2720016 48.6118421,39.8416876 47.9712919,39.8416876 L11.7990431,39.8416876 L11.7990431,39.8416876 Z M47.9712919,44.7030075 C51.2870813,44.7030075 54,41.968515 54,38.6263576 L54,7.02777778 C54,3.6856203 51.2870813,0.95112782 47.9712919,0.95112782 L6.97607656,0.95112782 C3.66028708,0.95112782 0.947368421,3.6856203 0.947368421,7.02777778 L0.947368421,38.6263576 C0.947368421,41.968515 3.66028708,44.7030075 6.97607656,44.7030075 L47.9712919,44.7030075 L47.9712919,44.7030075 Z" id=""></path>
                    </g>
                    <g id="Rectangle-3-+-" transform="translate(32.869565, 18.857143)">
                        <rect id="Rectangle-3" fill="#8BA124" x="0.782608696" y="5.5" width="18.7826087" height="28.2857143"></rect>
                        <path d="M12.7663043,31.8214286 C12.7663043,33.0368304 11.7758152,34.03125 10.5652174,34.03125 C9.35461957,34.03125 8.36413043,33.0368304 8.36413043,31.8214286 C8.36413043,30.6060268 9.35461957,29.6116071 10.5652174,29.6116071 C11.7758152,29.6116071 12.7663043,30.6060268 12.7663043,31.8214286 L12.7663043,31.8214286 Z M18.4891304,27.4017857 C18.4891304,27.8713728 18.0764266,28.2857143 17.6086957,28.2857143 L3.52173913,28.2857143 C3.05400815,28.2857143 2.64130435,27.8713728 2.64130435,27.4017857 L2.64130435,7.95535714 C2.64130435,7.48577009 3.05400815,7.07142857 3.52173913,7.07142857 L17.6086957,7.07142857 C18.0764266,7.07142857 18.4891304,7.48577009 18.4891304,7.95535714 L18.4891304,27.4017857 Z M13.2065217,3.97767857 C13.2065217,4.22628348 13.0139266,4.41964286 12.7663043,4.41964286 L8.36413043,4.41964286 C8.11650815,4.41964286 7.92391304,4.22628348 7.92391304,3.97767857 C7.92391304,3.72907366 8.11650815,3.53571429 8.36413043,3.53571429 L12.7663043,3.53571429 C13.0139266,3.53571429 13.2065217,3.72907366 13.2065217,3.97767857 L13.2065217,3.97767857 Z M21.1304348,3.53571429 C21.1304348,1.60212054 19.5346467,0 17.6086957,0 L3.52173913,0 C1.59578804,0 0,1.60212054 0,3.53571429 L0,31.8214286 C0,33.7550223 1.59578804,35.3571429 3.52173913,35.3571429 L17.6086957,35.3571429 C19.5346467,35.3571429 21.1304348,33.7550223 21.1304348,31.8214286 L21.1304348,3.53571429 Z" id="" stroke="#8BA124" fill="#FFFFFF"></path>
                    </g>
                </g>
                <text id="3" sketch:type="MSTextLayer" font-family="Museo Sans" font-size="24" font-weight="473" fill="#8BA124">
                    <tspan x="92" y="23">3</tspan>
                </text>
            </g>
        </g>
    </g>
</svg>