<svg width="115" height="108" viewBox="0 0 115 108" xmlns="http://www.w3.org/2000/svg"><title>logo</title><defs><filter x="-50%" y="-50%" width="200%" height="200%" filterUnits="objectBoundingBox" id="a"><feOffset dx="2" dy="2" in="SourceAlpha" result="shadowOffsetOuter1"/><feGaussianBlur stdDeviation="6" in="shadowOffsetOuter1" result="shadowBlurOuter1"/><feColorMatrix values="0 0 0 0 0 0 0 0 0 0 0 0 0 0 0 0 0 0 0.35 0" in="shadowBlurOuter1" result="shadowMatrixOuter1"/><feMerge><feMergeNode in="shadowMatrixOuter1"/><feMergeNode in="SourceGraphic"/></feMerge></filter></defs><g transform="translate(10 9)" fill="none" fill-rule="evenodd"><rect fill="#8BA124" filter="url(#a)" y="1" width="84" height="84" rx="12"/><path d="M42.91 64.73c0 1.318-1.102 2.41-2.432 2.41-1.33 0-2.43-1.092-2.43-2.41 0-1.32 1.1-2.412 2.43-2.412s2.43 1.093 2.43 2.412zm14.583-6.03c0 .642-.57 1.207-1.215 1.207h-31.6c-.645 0-1.214-.565-1.214-1.206V22.53c0-.642.57-1.207 1.215-1.207h31.598c.645 0 1.215.565 1.215 1.206V58.7zm4.86-36.17c0-3.317-2.733-6.03-6.075-6.03h-31.6c-3.34 0-6.076 2.713-6.076 6.03v40.994c0 3.316 2.735 6.03 6.077 6.03h31.598c3.342 0 6.076-2.714 6.076-6.03V22.53z" fill="#FFF"/><path fill="#8BA124" d="M50.653 40.357h18.783v28.286H50.653z"/><path d="M62.636 66.68c0 1.214-.99 2.208-2.2 2.208-1.212 0-2.202-.994-2.202-2.21 0-1.215.99-2.21 2.2-2.21 1.21 0 2.202.995 2.202 2.21zm5.723-4.42c0 .47-.414.883-.882.883H53.39a.907.907 0 0 1-.88-.884V42.812c0-.47.414-.884.88-.884H67.48c.468 0 .88.413.88.883V62.26zm-5.284-23.425c0 .248-.193.442-.44.442h-4.402a.435.435 0 0 1-.44-.442c0-.25.192-.442.44-.442h4.402c.247 0 .44.193.44.442zM71 38.393c0-1.934-1.596-3.536-3.522-3.536H53.39c-1.925 0-3.52 1.602-3.52 3.536V66.68c0 1.932 1.595 3.534 3.52 3.534H67.48c1.926 0 3.522-1.602 3.522-3.535V38.392z" stroke="#8BA124" fill="#FFF"/><path d="M92.84 16.008s2.016 2.28 5.64 2.28c3.792 0 6-2.688 6-5.592 0-2.952-2.304-4.632-4.656-4.968L104 2.904V.96H93.584v2.664h5.088c1.008 0 1.512-.072 1.512-.072V3.6s-.552.504-1.224 1.296l-3.12 3.696.696 1.584h1.176c1.992 0 3.648.84 3.648 2.64 0 1.464-1.296 2.544-3.072 2.544-2.256 0-3.864-1.728-3.864-1.728l-1.584 2.376z" fill="#8BA124"/></g></svg>